<?xml version="1.0" encoding="UTF-8" standalone="no"?>
<!DOCTYPE svg PUBLIC "-//W3C//DTD SVG 1.1//EN"
 "http://www.w3.org/Graphics/SVG/1.1/DTD/svg11.dtd">
<!-- Generated by graphviz version 2.43.20190912.0211 (20190912.0211)
 -->
<!-- Title: bad_row Pages: 1 -->
<svg width="1006pt" height="324pt"
 viewBox="0.00 0.00 1006.20 324.20" xmlns="http://www.w3.org/2000/svg" xmlns:xlink="http://www.w3.org/1999/xlink">
<g id="graph0" class="graph" transform="scale(1 1) rotate(0) translate(21.6 302.6)">
<title>bad_row</title>
<polygon fill="white" stroke="transparent" points="-21.6,21.6 -21.6,-302.6 984.6,-302.6 984.6,21.6 -21.6,21.6"/>
<g id="clust1" class="cluster">
<title>cluster_row</title>
<path fill="none" stroke="#6d9eeb" d="M18,-83C18,-83 69,-83 69,-83 75,-83 81,-89 81,-95 81,-95 81,-215 81,-215 81,-221 75,-227 69,-227 69,-227 18,-227 18,-227 12,-227 6,-221 6,-215 6,-215 6,-95 6,-95 6,-89 12,-83 18,-83"/>
<text text-anchor="middle" x="43.5" y="-211.8" font-family="Helvetica,sans-Serif" font-size="14.00">row count</text>
</g>
<!-- I -->
<g id="node1" class="node">
<title>I</title>
<polygon fill="none" stroke="black" points="43,-281 16,-263 43,-245 70,-263 43,-281"/>
<text text-anchor="middle" x="43" y="-259.3" font-family="Helvetica,sans-Serif" font-size="14.00">I</text>
</g>
<!-- nand -->
<g id="node6" class="node">
<title>nand</title>
<polygon fill="none" stroke="black" points="212,-255 132,-255 132,-217 212,-217 212,-255"/>
<text text-anchor="middle" x="172" y="-239.8" font-family="Helvetica,sans-Serif" font-size="14.00">U421</text>
<text text-anchor="middle" x="172" y="-224.8" font-family="Helvetica,sans-Serif" font-size="14.00">~(LSB &amp; I)</text>
</g>
<!-- I&#45;&gt;nand -->
<g id="edge3" class="edge">
<title>I&#45;&gt;nand</title>
<path fill="none" stroke="black" d="M63.84,-258.78C79.36,-255.48 101.62,-250.75 121.83,-246.45"/>
<polygon fill="black" stroke="black" points="122.81,-249.82 131.86,-244.32 121.35,-242.98 122.81,-249.82"/>
</g>
<!-- or -->
<g id="node7" class="node">
<title>or</title>
<polygon fill="none" stroke="black" points="209,-188 135,-188 135,-150 209,-150 209,-188"/>
<text text-anchor="middle" x="172" y="-172.8" font-family="Helvetica,sans-Serif" font-size="14.00">U419</text>
<text text-anchor="middle" x="172" y="-157.8" font-family="Helvetica,sans-Serif" font-size="14.00">LSB OR I</text>
</g>
<!-- I&#45;&gt;or -->
<g id="edge5" class="edge">
<title>I&#45;&gt;or</title>
<path fill="none" stroke="black" d="M56.64,-253.64C75.21,-239.9 110.53,-213.76 137.02,-194.15"/>
<polygon fill="black" stroke="black" points="139.32,-196.8 145.28,-188.04 135.16,-191.17 139.32,-196.8"/>
</g>
<!-- col10 -->
<g id="node2" class="node">
<title>col10</title>
<polygon fill="none" stroke="black" points="380,-105 307,-105 307,-67 380,-67 380,-105"/>
<text text-anchor="middle" x="343.5" y="-89.8" font-family="Helvetica,sans-Serif" font-size="14.00">U349</text>
<text text-anchor="middle" x="343.5" y="-74.8" font-family="Helvetica,sans-Serif" font-size="14.00">col == 10</text>
</g>
<!-- a31o -->
<g id="node9" class="node">
<title>a31o</title>
<polygon fill="none" stroke="black" points="678,-105 525,-105 525,-67 678,-67 678,-105"/>
<text text-anchor="middle" x="601.5" y="-89.8" font-family="Helvetica,sans-Serif" font-size="14.00">U412 a31o</text>
<text text-anchor="middle" x="601.5" y="-74.8" font-family="Helvetica,sans-Serif" font-size="14.00">(A1 &amp; A2 &amp; A3) OR B1</text>
</g>
<!-- col10&#45;&gt;a31o -->
<g id="edge9" class="edge">
<title>col10&#45;&gt;a31o</title>
<path fill="none" stroke="black" d="M380.1,-86C414.77,-86 468.83,-86 514.72,-86"/>
<polygon fill="black" stroke="black" points="514.98,-89.5 524.98,-86 514.98,-82.5 514.98,-89.5"/>
<text text-anchor="middle" x="470.5" y="-89" font-family="Helvetica,sans-Serif" font-size="10.00">A1</text>
</g>
<!-- scan -->
<g id="node3" class="node">
<title>scan</title>
<polygon fill="none" stroke="black" points="397,-38 290,-38 290,0 397,0 397,-38"/>
<text text-anchor="middle" x="343.5" y="-22.8" font-family="Helvetica,sans-Serif" font-size="14.00">U351</text>
<text text-anchor="middle" x="343.5" y="-7.8" font-family="Helvetica,sans-Serif" font-size="14.00">enable &amp; !done</text>
</g>
<!-- scan&#45;&gt;a31o -->
<g id="edge10" class="edge">
<title>scan&#45;&gt;a31o</title>
<path fill="none" stroke="black" d="M397.23,-32.8C431.91,-41.88 478.02,-53.94 517.56,-64.29"/>
<polygon fill="black" stroke="black" points="516.89,-67.74 527.45,-66.88 518.67,-60.96 516.89,-67.74"/>
<text text-anchor="middle" x="470.5" y="-62" font-family="Helvetica,sans-Serif" font-size="10.00">A2</text>
</g>
<!-- u407 -->
<g id="node4" class="node">
<title>u407</title>
<polygon fill="#cfe2f3" stroke="black" points="70,-129 16,-129 16,-91 70,-91 70,-129"/>
<text text-anchor="middle" x="43" y="-113.8" font-family="Helvetica,sans-Serif" font-size="14.00">U407</text>
<text text-anchor="middle" x="43" y="-98.8" font-family="Helvetica,sans-Serif" font-size="14.00">MSB</text>
</g>
<!-- mux -->
<g id="node8" class="node">
<title>mux</title>
<polygon fill="#fff2cc" stroke="black" points="271,-134.5 271,-203.5 416,-203.5 416,-134.5 271,-134.5"/>
<text text-anchor="middle" x="287.5" y="-188.3" font-family="Helvetica,sans-Serif" font-size="14.00">A0</text>
<polyline fill="none" stroke="black" points="271,-180.5 304,-180.5 "/>
<text text-anchor="middle" x="287.5" y="-165.3" font-family="Helvetica,sans-Serif" font-size="14.00">A1</text>
<polyline fill="none" stroke="black" points="271,-157.5 304,-157.5 "/>
<text text-anchor="middle" x="287.5" y="-142.3" font-family="Helvetica,sans-Serif" font-size="14.00">S</text>
<polyline fill="none" stroke="black" points="304,-134.5 304,-203.5 "/>
<text text-anchor="middle" x="347" y="-165.3" font-family="Helvetica,sans-Serif" font-size="14.00">U418 mux2</text>
<polyline fill="none" stroke="black" points="390,-134.5 390,-203.5 "/>
<text text-anchor="middle" x="403" y="-165.3" font-family="Helvetica,sans-Serif" font-size="14.00">X</text>
</g>
<!-- u407&#45;&gt;mux -->
<g id="edge1" class="edge">
<title>u407&#45;&gt;mux:s</title>
<path fill="none" stroke="black" d="M70.23,-109.98C103.58,-110.46 162.73,-112.98 212,-124 235.68,-129.3 241.61,-141.95 261.02,-145.22"/>
<polygon fill="black" stroke="black" points="260.76,-148.71 271,-146 261.3,-141.73 260.76,-148.71"/>
<text text-anchor="middle" x="172" y="-127" font-family="Helvetica,sans-Serif" font-size="10.00">S</text>
</g>
<!-- u411 -->
<g id="node5" class="node">
<title>u411</title>
<polygon fill="#cfe2f3" stroke="black" points="70,-196 16,-196 16,-158 70,-158 70,-196"/>
<text text-anchor="middle" x="43" y="-180.8" font-family="Helvetica,sans-Serif" font-size="14.00">U411</text>
<text text-anchor="middle" x="43" y="-165.8" font-family="Helvetica,sans-Serif" font-size="14.00">LSB</text>
</g>
<!-- u411&#45;&gt;nand -->
<g id="edge2" class="edge">
<title>u411&#45;&gt;nand</title>
<path fill="none" stroke="black" d="M70.01,-189.08C85.09,-196.09 104.56,-205.13 122.38,-213.41"/>
<polygon fill="black" stroke="black" points="120.97,-216.62 131.51,-217.65 123.92,-210.27 120.97,-216.62"/>
</g>
<!-- u411&#45;&gt;or -->
<g id="edge4" class="edge">
<title>u411&#45;&gt;or</title>
<path fill="none" stroke="black" d="M70.01,-175.36C85.8,-174.37 106.43,-173.07 124.91,-171.9"/>
<polygon fill="black" stroke="black" points="125.16,-175.39 134.92,-171.27 124.72,-168.41 125.16,-175.39"/>
</g>
<!-- nand&#45;&gt;mux -->
<g id="edge6" class="edge">
<title>nand&#45;&gt;mux:a0</title>
<path fill="none" stroke="black" d="M199.45,-216.83C215.97,-206.5 238.33,-195.33 260.96,-192.62"/>
<polygon fill="black" stroke="black" points="261.23,-196.11 271,-192 260.8,-189.12 261.23,-196.11"/>
</g>
<!-- or&#45;&gt;mux -->
<g id="edge7" class="edge">
<title>or&#45;&gt;mux:a1</title>
<path fill="none" stroke="black" d="M209.3,-169C224.74,-169 243.22,-169 260.79,-169"/>
<polygon fill="black" stroke="black" points="261,-172.5 271,-169 261,-165.5 261,-172.5"/>
</g>
<!-- mux&#45;&gt;a31o -->
<g id="edge8" class="edge">
<title>mux:x&#45;&gt;a31o</title>
<path fill="none" stroke="black" d="M416,-169C473.15,-169 532.18,-135.47 567.62,-111.03"/>
<polygon fill="black" stroke="black" points="569.96,-113.67 576.11,-105.04 565.92,-107.95 569.96,-113.67"/>
<text text-anchor="middle" x="470.5" y="-169" font-family="Helvetica,sans-Serif" font-size="10.00">A3 &#160;row ≠ 2</text>
</g>
<!-- u410 -->
<g id="node10" class="node">
<title>u410</title>
<polygon fill="#f4cccc" stroke="black" points="768,-68 768,-104 963,-104 963,-68 768,-68"/>
<text text-anchor="middle" x="781" y="-82.3" font-family="Helvetica,sans-Serif" font-size="14.00">D</text>
<polyline fill="none" stroke="black" points="794,-68 794,-104 "/>
<text text-anchor="middle" x="864.5" y="-82.3" font-family="Helvetica,sans-Serif" font-size="14.00">U410 row&#45;failure flag</text>
<polyline fill="none" stroke="black" points="935,-68 935,-104 "/>
<text text-anchor="middle" x="949" y="-82.3" font-family="Helvetica,sans-Serif" font-size="14.00">Q</text>
</g>
<!-- a31o&#45;&gt;u410 -->
<g id="edge11" class="edge">
<title>a31o&#45;&gt;u410:d</title>
<path fill="none" stroke="black" d="M678.09,-67.35C687.77,-65.55 697.58,-64.02 707,-63 721.14,-61.46 725.57,-58.32 739,-63 750.41,-66.97 751.83,-77.52 758.29,-82.84"/>
<polygon fill="black" stroke="black" points="757.41,-86.23 768,-86 759.58,-79.57 757.41,-86.23"/>
<text text-anchor="middle" x="723" y="-66" font-family="Helvetica,sans-Serif" font-size="10.00">D</text>
</g>
<!-- u410&#45;&gt;a31o -->
<g id="edge12" class="edge">
<title>u410:q&#45;&gt;a31o</title>
<path fill="none" stroke="black" stroke-width="2" d="M949.5,-105C949.5,-222.36 749.15,-150.4 652.92,-109.07"/>
<polygon fill="black" stroke="black" stroke-width="2" points="654.23,-105.82 643.67,-105.05 651.45,-112.24 654.23,-105.82"/>
<text text-anchor="middle" x="723" y="-144" font-family="Helvetica,sans-Serif" font-size="10.00">B1 = Q</text>
</g>
</g>
</svg>
